<svg width="46" height="46" viewBox="0 0 46 46" fill="none" xmlns="http://www.w3.org/2000/svg">
  <rect width="46" height="46" />
  <rect width="1280" height="720" transform="translate(-321 -597)"/>
  <mask id="path-1-inside-1_0_1" fill="white">
  <path d="M44.7925 22.23C44.0526 21.4642 43.0412 21.0202 41.9767 20.994C40.9122 20.9678 39.8801 21.3615 39.1035 22.09L31.4048 28.93C31.794 29.6808 31.9964 30.5144 31.9947 31.36C31.9906 32.4505 31.6558 33.5141 31.0346 34.4104C30.4134 35.3066 29.535 35.9934 28.5153 36.38L22.0463 38.81C21.7982 38.8986 21.5253 38.8865 21.2861 38.7762C21.0468 38.6659 20.8603 38.4662 20.7666 38.22C20.7192 38.098 20.6966 37.9678 20.7002 37.837C20.7038 37.7061 20.7334 37.5773 20.7874 37.4581C20.8414 37.3389 20.9187 37.2317 21.0147 37.1427C21.1107 37.0537 21.2235 36.9848 21.3465 36.94L27.8154 34.51C28.4547 34.2671 29.0053 33.836 29.3945 33.2736C29.7836 32.7112 29.993 32.0439 29.995 31.36C29.9704 30.4768 29.6086 29.6364 28.9839 29.0116C28.3591 28.3867 27.5188 28.0248 26.6355 28H7.99866C7.99868 27.7374 7.94698 27.4774 7.8465 27.2347C7.74602 26.9921 7.59873 26.7716 7.41305 26.5859C7.22736 26.4002 7.00691 26.2528 6.76429 26.1523C6.52167 26.0518 6.26162 26.0001 5.999 26H1.99966C1.73704 26.0001 1.47699 26.0518 1.23437 26.1523C0.991747 26.2528 0.771299 26.4002 0.585613 26.5859C0.399928 26.7716 0.25264 26.9921 0.15216 27.2347C0.0516804 27.4774 -2.36308e-05 27.7374 8.10207e-09 28V44C-3.71241e-05 44.5304 0.210618 45.0391 0.585625 45.4142C0.960632 45.7892 1.46927 46 1.99966 46H5.999C6.52939 46 7.03803 45.7892 7.41304 45.4142C7.78805 45.0391 7.99871 44.5304 7.99867 44H12.048L13.2978 44.51C17.1763 46.1148 21.4673 46.4329 25.5401 45.4177C29.6128 44.4025 33.2525 42.1075 35.924 38.87L45.0325 27.86C45.6971 27.0586 46.0405 26.039 45.9961 24.9988C45.9518 23.9587 45.5229 22.972 44.7925 22.23ZM10.9982 42H7.99866V30H10.9982V42ZM28.4181 3.10776e-05C26.4453 -0.00527304 24.5308 0.668524 22.9961 1.90823C21.4615 0.668526 19.547 -0.00527126 17.5742 3.10776e-05C15.2735 0.00578005 13.069 0.92385 11.4443 2.55285C9.8196 4.18185 8.90736 6.38877 8.90769 8.68948C8.90769 17.8321 21.9377 25.5401 22.4923 25.8643C22.6453 25.9532 22.8192 26 22.9961 26C23.1731 26 23.3469 25.9532 23.5 25.8643C24.0546 25.54 37.0846 17.832 37.0846 8.68948C37.0849 6.38876 36.1727 4.18185 34.548 2.55285C32.9233 0.923846 30.7188 0.00577741 28.4181 3.10776e-05ZM26.6461 18.6571C26.4632 18.8072 26.2324 18.8864 25.9959 18.88C25.7943 18.8784 25.598 18.8157 25.4329 18.7001C25.2677 18.5845 25.1416 18.4216 25.0711 18.2327C25.0006 18.0439 24.9891 17.8381 25.038 17.6426C25.087 17.4471 25.1942 17.271 25.3454 17.1377C29.0469 13.9668 31.0857 10.9659 31.0857 8.68948C31.0877 7.97934 30.8081 7.29737 30.308 6.79318C29.8079 6.28898 29.1282 6.00374 28.4181 6.00003C28.1529 6.00003 27.8985 5.89467 27.711 5.70714C27.5234 5.5196 27.4181 5.26525 27.4181 5.00003C27.4181 4.73481 27.5234 4.48046 27.711 4.29292C27.8985 4.10539 28.1529 4.00003 28.4181 4.00003C29.6584 4.00432 30.8464 4.50047 31.7214 5.37962C32.5964 6.25877 33.0869 7.44912 33.0853 8.68948C33.0853 12.3681 29.584 16.1396 26.6461 18.6571Z"/>
  </mask>
  <path d="M44.7925 22.23C44.0526 21.4642 43.0412 21.0202 41.9767 20.994C40.9122 20.9678 39.8801 21.3615 39.1035 22.09L31.4048 28.93C31.794 29.6808 31.9964 30.5144 31.9947 31.36C31.9906 32.4505 31.6558 33.5141 31.0346 34.4104C30.4134 35.3066 29.535 35.9934 28.5153 36.38L22.0463 38.81C21.7982 38.8986 21.5253 38.8865 21.2861 38.7762C21.0468 38.6659 20.8603 38.4662 20.7666 38.22C20.7192 38.098 20.6966 37.9678 20.7002 37.837C20.7038 37.7061 20.7334 37.5773 20.7874 37.4581C20.8414 37.3389 20.9187 37.2317 21.0147 37.1427C21.1107 37.0537 21.2235 36.9848 21.3465 36.94L27.8154 34.51C28.4547 34.2671 29.0053 33.836 29.3945 33.2736C29.7836 32.7112 29.993 32.0439 29.995 31.36C29.9704 30.4768 29.6086 29.6364 28.9839 29.0116C28.3591 28.3867 27.5188 28.0248 26.6355 28H7.99866C7.99868 27.7374 7.94698 27.4774 7.8465 27.2347C7.74602 26.9921 7.59873 26.7716 7.41305 26.5859C7.22736 26.4002 7.00691 26.2528 6.76429 26.1523C6.52167 26.0518 6.26162 26.0001 5.999 26H1.99966C1.73704 26.0001 1.47699 26.0518 1.23437 26.1523C0.991747 26.2528 0.771299 26.4002 0.585613 26.5859C0.399928 26.7716 0.25264 26.9921 0.15216 27.2347C0.0516804 27.4774 -2.36308e-05 27.7374 8.10207e-09 28V44C-3.71241e-05 44.5304 0.210618 45.0391 0.585625 45.4142C0.960632 45.7892 1.46927 46 1.99966 46H5.999C6.52939 46 7.03803 45.7892 7.41304 45.4142C7.78805 45.0391 7.99871 44.5304 7.99867 44H12.048L13.2978 44.51C17.1763 46.1148 21.4673 46.4329 25.5401 45.4177C29.6128 44.4025 33.2525 42.1075 35.924 38.87L45.0325 27.86C45.6971 27.0586 46.0405 26.039 45.9961 24.9988C45.9518 23.9587 45.5229 22.972 44.7925 22.23ZM10.9982 42H7.99866V30H10.9982V42ZM28.4181 3.10776e-05C26.4453 -0.00527304 24.5308 0.668524 22.9961 1.90823C21.4615 0.668526 19.547 -0.00527126 17.5742 3.10776e-05C15.2735 0.00578005 13.069 0.92385 11.4443 2.55285C9.8196 4.18185 8.90736 6.38877 8.90769 8.68948C8.90769 17.8321 21.9377 25.5401 22.4923 25.8643C22.6453 25.9532 22.8192 26 22.9961 26C23.1731 26 23.3469 25.9532 23.5 25.8643C24.0546 25.54 37.0846 17.832 37.0846 8.68948C37.0849 6.38876 36.1727 4.18185 34.548 2.55285C32.9233 0.923846 30.7188 0.00577741 28.4181 3.10776e-05ZM26.6461 18.6571C26.4632 18.8072 26.2324 18.8864 25.9959 18.88C25.7943 18.8784 25.598 18.8157 25.4329 18.7001C25.2677 18.5845 25.1416 18.4216 25.0711 18.2327C25.0006 18.0439 24.9891 17.8381 25.038 17.6426C25.087 17.4471 25.1942 17.271 25.3454 17.1377C29.0469 13.9668 31.0857 10.9659 31.0857 8.68948C31.0877 7.97934 30.8081 7.29737 30.308 6.79318C29.8079 6.28898 29.1282 6.00374 28.4181 6.00003C28.1529 6.00003 27.8985 5.89467 27.711 5.70714C27.5234 5.5196 27.4181 5.26525 27.4181 5.00003C27.4181 4.73481 27.5234 4.48046 27.711 4.29292C27.8985 4.10539 28.1529 4.00003 28.4181 4.00003C29.6584 4.00432 30.8464 4.50047 31.7214 5.37962C32.5964 6.25877 33.0869 7.44912 33.0853 8.68948C33.0853 12.3681 29.584 16.1396 26.6461 18.6571Z" stroke="black" stroke-width="2" mask="url(#path-1-inside-1_0_1)"/>
</svg>
