<svg width="46" height="46" viewBox="0 0 46 46" fill="none" xmlns="http://www.w3.org/2000/svg">
<mask id="path-1-inside-1_0_1" fill="white">
<path fill-rule="evenodd" clip-rule="evenodd" d="M25 6H34.9999L34.9999 1C35 0.868657 34.9742 0.738587 34.924 0.617227C34.8737 0.495867 34.8001 0.385597 34.7072 0.292723C34.6143 0.19985 34.5041 0.126193 34.3827 0.0759653C34.2613 0.0257376 34.1313 -7.60771e-05 33.9999 1.68411e-07H29C28.8686 -7.60771e-05 28.7386 0.0257376 28.6172 0.0759653C28.4959 0.126193 28.3856 0.19985 28.2927 0.292723C28.1998 0.385597 28.1262 0.495867 28.076 0.617227C28.0257 0.738587 27.9999 0.868657 28 1V4H26C25.8686 3.99992 25.7386 4.02574 25.6172 4.07597C25.4959 4.12619 25.3856 4.19985 25.2927 4.29272C25.1998 4.3856 25.1262 4.49587 25.076 4.61723C25.0257 4.73859 24.9999 4.86866 25 5V6ZM4.38206 12H41.618L39.8943 8.55273C39.8112 8.38665 39.6835 8.24698 39.5255 8.14936C39.3675 8.05174 39.1855 8.00002 38.9998 8H7.00019C6.81448 8.00002 6.63244 8.05174 6.47445 8.14936C6.31647 8.24698 6.18877 8.38665 6.10567 8.55273L4.38206 12ZM0.000988951 21.0448C0.00869146 21.2151 0.0598849 21.3805 0.149688 21.5254C0.239278 21.6704 0.364444 21.7901 0.513306 21.8732C0.662169 21.9563 0.829789 21.9999 1.00026 22H18C18.1696 22 18.3363 21.9568 18.4846 21.8747C18.6329 21.7925 18.7578 21.674 18.8477 21.5303L21.0541 18H1.38209L0.105688 20.5527C0.0293318 20.7051 -0.00671355 20.8745 0.000988951 21.0448ZM44.6179 18H24.9458L27.1523 21.5303C27.2422 21.674 27.3671 21.7925 27.5154 21.8747C27.6637 21.9568 27.8304 22 27.9999 22H44.9997C45.1701 21.9999 45.3377 21.9563 45.4866 21.8733C45.6354 21.7902 45.7606 21.6705 45.8502 21.5256C45.9398 21.3806 45.9909 21.2151 45.9986 21.0449C46.0063 20.8746 45.9704 20.7052 45.8942 20.5527L44.6179 18ZM3.38208 14L2.38208 16H43.6179L42.6179 14H3.38208Z"/>
<path fill-rule="evenodd" clip-rule="evenodd" d="M42.9997 44H44.9997C45.2649 44 45.5193 44.1054 45.7068 44.2929C45.8944 44.4804 45.9997 44.7348 45.9997 45C45.9997 45.2652 45.8944 45.5196 45.7068 45.7071C45.5193 45.8946 45.2649 46 44.9997 46H1.00024C0.735021 46 0.480667 45.8946 0.293131 45.7071C0.105595 45.5196 0.000237932 45.2652 0.000237932 45C0.000237932 44.7348 0.105595 44.4804 0.293131 44.2929C0.480667 44.1054 0.735021 44 1.00024 44H3.00024V24H18C18.5092 24.0017 19.0103 23.8729 19.4556 23.6261C19.9009 23.3792 20.2756 23.0225 20.544 22.5898L23 18.6602L25.457 22.5908C25.7253 23.0233 26.0999 23.3798 26.545 23.6265C26.9901 23.8731 27.491 24.0017 27.9999 24H42.9997L42.9997 44ZM17.0001 44H19.0001L19 30H27V44H29L28.9999 29C28.9999 28.8687 28.9741 28.7386 28.9239 28.6172C28.8737 28.4959 28.8 28.3856 28.7071 28.2927C28.6143 28.1998 28.504 28.1262 28.3826 28.076C28.2613 28.0257 28.1312 27.9999 27.9999 28H18C17.8686 27.9999 17.7386 28.0257 17.6172 28.076C17.4959 28.1262 17.3856 28.1998 17.2927 28.2927C17.1998 28.3856 17.1262 28.4959 17.076 28.6172C17.0257 28.7386 16.9999 28.8687 17 29L17.0001 44Z"/>
</mask>
<path fill-rule="evenodd" clip-rule="evenodd" d="M25 6H34.9999L34.9999 1C35 0.868657 34.9742 0.738587 34.924 0.617227C34.8737 0.495867 34.8001 0.385597 34.7072 0.292723C34.6143 0.19985 34.5041 0.126193 34.3827 0.0759653C34.2613 0.0257376 34.1313 -7.60771e-05 33.9999 1.68411e-07H29C28.8686 -7.60771e-05 28.7386 0.0257376 28.6172 0.0759653C28.4959 0.126193 28.3856 0.19985 28.2927 0.292723C28.1998 0.385597 28.1262 0.495867 28.076 0.617227C28.0257 0.738587 27.9999 0.868657 28 1V4H26C25.8686 3.99992 25.7386 4.02574 25.6172 4.07597C25.4959 4.12619 25.3856 4.19985 25.2927 4.29272C25.1998 4.3856 25.1262 4.49587 25.076 4.61723C25.0257 4.73859 24.9999 4.86866 25 5V6ZM4.38206 12H41.618L39.8943 8.55273C39.8112 8.38665 39.6835 8.24698 39.5255 8.14936C39.3675 8.05174 39.1855 8.00002 38.9998 8H7.00019C6.81448 8.00002 6.63244 8.05174 6.47445 8.14936C6.31647 8.24698 6.18877 8.38665 6.10567 8.55273L4.38206 12ZM0.000988951 21.0448C0.00869146 21.2151 0.0598849 21.3805 0.149688 21.5254C0.239278 21.6704 0.364444 21.7901 0.513306 21.8732C0.662169 21.9563 0.829789 21.9999 1.00026 22H18C18.1696 22 18.3363 21.9568 18.4846 21.8747C18.6329 21.7925 18.7578 21.674 18.8477 21.5303L21.0541 18H1.38209L0.105688 20.5527C0.0293318 20.7051 -0.00671355 20.8745 0.000988951 21.0448ZM44.6179 18H24.9458L27.1523 21.5303C27.2422 21.674 27.3671 21.7925 27.5154 21.8747C27.6637 21.9568 27.8304 22 27.9999 22H44.9997C45.1701 21.9999 45.3377 21.9563 45.4866 21.8733C45.6354 21.7902 45.7606 21.6705 45.8502 21.5256C45.9398 21.3806 45.9909 21.2151 45.9986 21.0449C46.0063 20.8746 45.9704 20.7052 45.8942 20.5527L44.6179 18ZM3.38208 14L2.38208 16H43.6179L42.6179 14H3.38208Z" stroke="black" stroke-width="2" mask="url(#path-1-inside-1_0_1)"/>
<path fill-rule="evenodd" clip-rule="evenodd" d="M42.9997 44H44.9997C45.2649 44 45.5193 44.1054 45.7068 44.2929C45.8944 44.4804 45.9997 44.7348 45.9997 45C45.9997 45.2652 45.8944 45.5196 45.7068 45.7071C45.5193 45.8946 45.2649 46 44.9997 46H1.00024C0.735021 46 0.480667 45.8946 0.293131 45.7071C0.105595 45.5196 0.000237932 45.2652 0.000237932 45C0.000237932 44.7348 0.105595 44.4804 0.293131 44.2929C0.480667 44.1054 0.735021 44 1.00024 44H3.00024V24H18C18.5092 24.0017 19.0103 23.8729 19.4556 23.6261C19.9009 23.3792 20.2756 23.0225 20.544 22.5898L23 18.6602L25.457 22.5908C25.7253 23.0233 26.0999 23.3798 26.545 23.6265C26.9901 23.8731 27.491 24.0017 27.9999 24H42.9997L42.9997 44ZM17.0001 44H19.0001L19 30H27V44H29L28.9999 29C28.9999 28.8687 28.9741 28.7386 28.9239 28.6172C28.8737 28.4959 28.8 28.3856 28.7071 28.2927C28.6143 28.1998 28.504 28.1262 28.3826 28.076C28.2613 28.0257 28.1312 27.9999 27.9999 28H18C17.8686 27.9999 17.7386 28.0257 17.6172 28.076C17.4959 28.1262 17.3856 28.1998 17.2927 28.2927C17.1998 28.3856 17.1262 28.4959 17.076 28.6172C17.0257 28.7386 16.9999 28.8687 17 29L17.0001 44Z" stroke="black" stroke-width="2" mask="url(#path-1-inside-1_0_1)"/>
</svg>
