<svg width="46" height="46" viewBox="0 0 46 46" fill="none" xmlns="http://www.w3.org/2000/svg">
  <rect width="46" height="46" />
  <rect width="1280" height="720" transform="translate(-339 -655)" />
  <mask id="path-1-inside-1_0_1" fill="white">
  <path d="M44.9997 44H42.9997V35.7206L39.7087 36.8174L38.8943 38.4473C38.8355 38.5647 38.7543 38.6693 38.6551 38.7553C38.5559 38.8412 38.4407 38.9068 38.3162 38.9483L35.9998 39.7207V42C35.9997 42.1076 35.9822 42.2144 35.948 42.3164L35.387 44H33.2795L33.9998 41.8379V39C33.9998 38.7902 34.0658 38.5857 34.1885 38.4154C34.3112 38.2452 34.4843 38.118 34.6834 38.0518L37.2908 37.1826L38.1053 35.5527C38.164 35.4353 38.2453 35.3307 38.3445 35.2447C38.4437 35.1588 38.5588 35.0932 38.6834 35.0517L42.9997 33.6132V27.6182L36.447 30.8946C36.2097 31.0132 35.9351 31.0327 35.6835 30.9488C35.4318 30.8649 35.2238 30.6845 35.1052 30.4472C34.9866 30.21 34.9671 29.9353 35.051 29.6837C35.1349 29.4321 35.3153 29.2241 35.5525 29.1055L36.658 28.5527L36.1053 27.4473C36.0455 27.3297 36.0097 27.2015 35.9997 27.07C35.9897 26.9385 36.0059 26.8063 36.0472 26.6811C36.0885 26.5559 36.1541 26.4401 36.2404 26.3403C36.3266 26.2406 36.4317 26.1588 36.5497 26.0999C36.6676 26.0409 36.7961 26.0058 36.9276 25.9967C37.0592 25.9875 37.1912 26.0045 37.3162 26.0466C37.4411 26.0887 37.5566 26.1551 37.6558 26.2419C37.755 26.3288 37.836 26.4344 37.8943 26.5527L38.447 27.6582L42.9997 25.3818V24H27.9999C27.491 24.0017 26.9901 23.8731 26.545 23.6265C26.0999 23.3798 25.7253 23.0233 25.457 22.5908L23 18.6602L20.544 22.5898C20.2756 23.0225 19.9009 23.3792 19.4556 23.6261C19.0103 23.8729 18.5092 24.0017 18 24H3.00024V36.5006L7.40057 33.2002C7.57343 33.0702 7.78388 32.9999 8.00018 33H10.1808L11.0197 28.8037C11.0454 28.675 11.0963 28.5525 11.1694 28.4434C11.2425 28.3344 11.3364 28.2407 11.4456 28.1679C11.5549 28.0951 11.6774 28.0445 11.8063 28.0191C11.9351 27.9936 12.0677 27.9938 12.1964 28.0195C12.3252 28.0453 12.4476 28.0962 12.5567 28.1693C12.6658 28.2424 12.7594 28.3362 12.8322 28.4455C12.905 28.5548 12.9556 28.6773 12.9811 28.8061C13.0065 28.935 13.0064 29.0675 12.9806 29.1963L11.9806 34.1963C11.9351 34.4229 11.8126 34.6267 11.6339 34.7732C11.4552 34.9197 11.2312 34.9999 11.0001 35H9.11833L9.89468 36.5527C9.95343 36.6702 9.98847 36.7981 9.99778 36.9291C10.0071 37.0601 9.99052 37.1917 9.94899 37.3163C9.90746 37.4409 9.84179 37.5561 9.75573 37.6553C9.66968 37.7545 9.56492 37.8358 9.44744 37.8945C9.20961 38.0096 8.93626 38.0272 8.68562 37.9436C8.43499 37.8601 8.22688 37.682 8.10564 37.4473L7.27777 35.7916L3.00024 38.9998V44H1.00024C0.735021 44 0.480667 44.1054 0.293131 44.2929C0.105595 44.4804 0.000237932 44.7348 0.000237932 45C0.000237932 45.2652 0.105595 45.5196 0.293131 45.7071C0.480667 45.8946 0.735021 46 1.00024 46H44.9997C45.2649 46 45.5193 45.8946 45.7068 45.7071C45.8944 45.5196 45.9997 45.2652 45.9997 45C45.9997 44.7348 45.8944 44.4804 45.7068 44.2929C45.5193 44.1054 45.2649 44 44.9997 44ZM27 44V41.3797L19.6774 39.8106L19.0001 40.3073V44H17.0001V41.774L15.5919 42.8066C15.3767 42.9599 15.1102 43.0231 14.8491 42.983C14.588 42.9429 14.3528 42.8026 14.1935 42.5918C14.0368 42.3778 13.9713 42.1103 14.0116 41.8481C14.0519 41.586 14.1946 41.3505 14.4083 41.1934L17.0001 39.2927V39.2368L15.7901 38.9776C15.6618 38.95 15.5401 38.8974 15.432 38.8228C15.324 38.7482 15.2317 38.6531 15.1604 38.5428C15.0891 38.4325 15.0403 38.3093 15.0166 38.1802C14.9929 38.051 14.995 37.9185 15.0225 37.7901C15.0501 37.6617 15.1027 37.54 15.1773 37.432C15.2519 37.3239 15.347 37.2316 15.4573 37.1603C15.5675 37.0891 15.6908 37.0402 15.8199 37.0165C15.9491 36.9929 16.0816 36.9949 16.21 37.0225L17 37.1918V33.2368L15.79 32.9775C15.5308 32.9219 15.3043 32.7655 15.1603 32.5428C15.0164 32.3201 14.9668 32.0493 15.0225 31.79C15.0782 31.5308 15.2346 31.3043 15.4573 31.1603C15.68 31.0164 15.9507 30.9668 16.21 31.0225L17 31.1918V29C16.9999 28.8687 17.0257 28.7386 17.076 28.6172C17.1262 28.4959 17.1998 28.3856 17.2927 28.2927C17.3856 28.1998 17.4959 28.1262 17.6172 28.076C17.7386 28.0257 17.8686 27.9999 18 28H27.9999C28.1312 27.9999 28.2613 28.0257 28.3826 28.076C28.504 28.1262 28.6143 28.1998 28.7071 28.2927C28.8 28.3856 28.8737 28.4959 28.9239 28.6172C28.9741 28.7386 28.9999 28.8687 28.9999 29V30.4927L29.4081 30.1934C29.622 30.0364 29.8895 29.9709 30.1518 30.0112C30.414 30.0515 30.6495 30.1943 30.8065 30.4082C30.9634 30.6221 31.029 30.8897 30.9887 31.1519C30.9484 31.4142 30.8056 31.6497 30.5916 31.8066L28.9999 32.9739V33.7632L30.2098 34.0225C30.3382 34.0499 30.46 34.1025 30.5681 34.177C30.6762 34.2516 30.7685 34.3468 30.8398 34.4571C30.9111 34.5674 30.96 34.6906 30.9836 34.8198C31.0072 34.949 31.0051 35.0816 30.9774 35.21C30.9179 35.4671 30.7608 35.691 30.5391 35.8343C30.3175 35.9775 30.0488 36.0289 29.7899 35.9776L28.9999 35.8083V39.7632L30.2099 40.0225C30.3383 40.05 30.46 40.1025 30.5681 40.1771C30.6762 40.2517 30.7686 40.3468 30.8399 40.4571C30.9111 40.5674 30.96 40.6906 30.9836 40.8198C31.0072 40.949 31.0051 41.0816 30.9775 41.21C30.917 41.4665 30.7596 41.6897 30.5382 41.8328C30.3169 41.9759 30.0487 42.0278 29.79 41.9776L29 41.8083V44H27ZM34.9999 6H25V5C24.9999 4.86866 25.0257 4.73859 25.076 4.61723C25.1262 4.49587 25.1998 4.3856 25.2927 4.29272C25.3856 4.19985 25.4959 4.12619 25.6172 4.07597C25.7386 4.02574 25.8686 3.99992 26 4H28V1C27.9999 0.868657 28.0257 0.738587 28.076 0.617227C28.1262 0.495867 28.1998 0.385597 28.2927 0.292723C28.3856 0.19985 28.4959 0.126193 28.6172 0.0759653C28.7386 0.0257376 28.8686 -7.60771e-05 29 1.68411e-07H33.9999C34.1313 -7.60771e-05 34.2613 0.0257376 34.3827 0.0759653C34.5041 0.126193 34.6143 0.19985 34.7072 0.292723C34.8001 0.385597 34.8737 0.495867 34.924 0.617227C34.9742 0.738587 35 0.868657 34.9999 1L34.9999 6ZM41.618 12H4.38206L6.10567 8.55273C6.18877 8.38665 6.31647 8.24698 6.47445 8.14936C6.63244 8.05174 6.81448 8.00002 7.00019 8H38.9998C39.1855 8.00002 39.3675 8.05174 39.5255 8.14936C39.6835 8.24698 39.8112 8.38665 39.8943 8.55273L41.618 12ZM0.149688 21.5254C0.0598849 21.3805 0.00869146 21.2151 0.000988951 21.0448C-0.00671355 20.8745 0.0293318 20.7051 0.105688 20.5527L1.38209 18H21.0541L18.8477 21.5303C18.7578 21.674 18.6329 21.7925 18.4846 21.8747C18.3363 21.9568 18.1696 22 18 22H1.00026C0.829789 21.9999 0.662169 21.9563 0.513306 21.8732C0.364444 21.7901 0.239278 21.6704 0.149688 21.5254V21.5254ZM24.9458 18H44.6179L45.8942 20.5527C45.9704 20.7052 46.0063 20.8746 45.9986 21.0449C45.9909 21.2151 45.9398 21.3806 45.8502 21.5256C45.7606 21.6705 45.6354 21.7902 45.4866 21.8733C45.3377 21.9563 45.1701 21.9999 44.9997 22H27.9999C27.8304 22 27.6637 21.9568 27.5154 21.8747C27.3671 21.7925 27.2422 21.674 27.1523 21.5303L24.9458 18ZM19 30H27V31.9594L25.5488 33.0236L19 31.6203V30ZM26.009 35.1673L27 35.3797V39.3346L21.8356 38.2279L26.009 35.1673ZM23.3906 34.6063L19.2171 37.6669L19 37.6203V33.6654L23.3906 34.6063ZM2.38208 16L3.38208 14H42.6179L43.6179 16H2.38208Z"/>
  </mask>
  <path d="M44.9997 44H42.9997V35.7206L39.7087 36.8174L38.8943 38.4473C38.8355 38.5647 38.7543 38.6693 38.6551 38.7553C38.5559 38.8412 38.4407 38.9068 38.3162 38.9483L35.9998 39.7207V42C35.9997 42.1076 35.9822 42.2144 35.948 42.3164L35.387 44H33.2795L33.9998 41.8379V39C33.9998 38.7902 34.0658 38.5857 34.1885 38.4154C34.3112 38.2452 34.4843 38.118 34.6834 38.0518L37.2908 37.1826L38.1053 35.5527C38.164 35.4353 38.2453 35.3307 38.3445 35.2447C38.4437 35.1588 38.5588 35.0932 38.6834 35.0517L42.9997 33.6132V27.6182L36.447 30.8946C36.2097 31.0132 35.9351 31.0327 35.6835 30.9488C35.4318 30.8649 35.2238 30.6845 35.1052 30.4472C34.9866 30.21 34.9671 29.9353 35.051 29.6837C35.1349 29.4321 35.3153 29.2241 35.5525 29.1055L36.658 28.5527L36.1053 27.4473C36.0455 27.3297 36.0097 27.2015 35.9997 27.07C35.9897 26.9385 36.0059 26.8063 36.0472 26.6811C36.0885 26.5559 36.1541 26.4401 36.2404 26.3403C36.3266 26.2406 36.4317 26.1588 36.5497 26.0999C36.6676 26.0409 36.7961 26.0058 36.9276 25.9967C37.0592 25.9875 37.1912 26.0045 37.3162 26.0466C37.4411 26.0887 37.5566 26.1551 37.6558 26.2419C37.755 26.3288 37.836 26.4344 37.8943 26.5527L38.447 27.6582L42.9997 25.3818V24H27.9999C27.491 24.0017 26.9901 23.8731 26.545 23.6265C26.0999 23.3798 25.7253 23.0233 25.457 22.5908L23 18.6602L20.544 22.5898C20.2756 23.0225 19.9009 23.3792 19.4556 23.6261C19.0103 23.8729 18.5092 24.0017 18 24H3.00024V36.5006L7.40057 33.2002C7.57343 33.0702 7.78388 32.9999 8.00018 33H10.1808L11.0197 28.8037C11.0454 28.675 11.0963 28.5525 11.1694 28.4434C11.2425 28.3344 11.3364 28.2407 11.4456 28.1679C11.5549 28.0951 11.6774 28.0445 11.8063 28.0191C11.9351 27.9936 12.0677 27.9938 12.1964 28.0195C12.3252 28.0453 12.4476 28.0962 12.5567 28.1693C12.6658 28.2424 12.7594 28.3362 12.8322 28.4455C12.905 28.5548 12.9556 28.6773 12.9811 28.8061C13.0065 28.935 13.0064 29.0675 12.9806 29.1963L11.9806 34.1963C11.9351 34.4229 11.8126 34.6267 11.6339 34.7732C11.4552 34.9197 11.2312 34.9999 11.0001 35H9.11833L9.89468 36.5527C9.95343 36.6702 9.98847 36.7981 9.99778 36.9291C10.0071 37.0601 9.99052 37.1917 9.94899 37.3163C9.90746 37.4409 9.84179 37.5561 9.75573 37.6553C9.66968 37.7545 9.56492 37.8358 9.44744 37.8945C9.20961 38.0096 8.93626 38.0272 8.68562 37.9436C8.43499 37.8601 8.22688 37.682 8.10564 37.4473L7.27777 35.7916L3.00024 38.9998V44H1.00024C0.735021 44 0.480667 44.1054 0.293131 44.2929C0.105595 44.4804 0.000237932 44.7348 0.000237932 45C0.000237932 45.2652 0.105595 45.5196 0.293131 45.7071C0.480667 45.8946 0.735021 46 1.00024 46H44.9997C45.2649 46 45.5193 45.8946 45.7068 45.7071C45.8944 45.5196 45.9997 45.2652 45.9997 45C45.9997 44.7348 45.8944 44.4804 45.7068 44.2929C45.5193 44.1054 45.2649 44 44.9997 44ZM27 44V41.3797L19.6774 39.8106L19.0001 40.3073V44H17.0001V41.774L15.5919 42.8066C15.3767 42.9599 15.1102 43.0231 14.8491 42.983C14.588 42.9429 14.3528 42.8026 14.1935 42.5918C14.0368 42.3778 13.9713 42.1103 14.0116 41.8481C14.0519 41.586 14.1946 41.3505 14.4083 41.1934L17.0001 39.2927V39.2368L15.7901 38.9776C15.6618 38.95 15.5401 38.8974 15.432 38.8228C15.324 38.7482 15.2317 38.6531 15.1604 38.5428C15.0891 38.4325 15.0403 38.3093 15.0166 38.1802C14.9929 38.051 14.995 37.9185 15.0225 37.7901C15.0501 37.6617 15.1027 37.54 15.1773 37.432C15.2519 37.3239 15.347 37.2316 15.4573 37.1603C15.5675 37.0891 15.6908 37.0402 15.8199 37.0165C15.9491 36.9929 16.0816 36.9949 16.21 37.0225L17 37.1918V33.2368L15.79 32.9775C15.5308 32.9219 15.3043 32.7655 15.1603 32.5428C15.0164 32.3201 14.9668 32.0493 15.0225 31.79C15.0782 31.5308 15.2346 31.3043 15.4573 31.1603C15.68 31.0164 15.9507 30.9668 16.21 31.0225L17 31.1918V29C16.9999 28.8687 17.0257 28.7386 17.076 28.6172C17.1262 28.4959 17.1998 28.3856 17.2927 28.2927C17.3856 28.1998 17.4959 28.1262 17.6172 28.076C17.7386 28.0257 17.8686 27.9999 18 28H27.9999C28.1312 27.9999 28.2613 28.0257 28.3826 28.076C28.504 28.1262 28.6143 28.1998 28.7071 28.2927C28.8 28.3856 28.8737 28.4959 28.9239 28.6172C28.9741 28.7386 28.9999 28.8687 28.9999 29V30.4927L29.4081 30.1934C29.622 30.0364 29.8895 29.9709 30.1518 30.0112C30.414 30.0515 30.6495 30.1943 30.8065 30.4082C30.9634 30.6221 31.029 30.8897 30.9887 31.1519C30.9484 31.4142 30.8056 31.6497 30.5916 31.8066L28.9999 32.9739V33.7632L30.2098 34.0225C30.3382 34.0499 30.46 34.1025 30.5681 34.177C30.6762 34.2516 30.7685 34.3468 30.8398 34.4571C30.9111 34.5674 30.96 34.6906 30.9836 34.8198C31.0072 34.949 31.0051 35.0816 30.9774 35.21C30.9179 35.4671 30.7608 35.691 30.5391 35.8343C30.3175 35.9775 30.0488 36.0289 29.7899 35.9776L28.9999 35.8083V39.7632L30.2099 40.0225C30.3383 40.05 30.46 40.1025 30.5681 40.1771C30.6762 40.2517 30.7686 40.3468 30.8399 40.4571C30.9111 40.5674 30.96 40.6906 30.9836 40.8198C31.0072 40.949 31.0051 41.0816 30.9775 41.21C30.917 41.4665 30.7596 41.6897 30.5382 41.8328C30.3169 41.9759 30.0487 42.0278 29.79 41.9776L29 41.8083V44H27ZM34.9999 6H25V5C24.9999 4.86866 25.0257 4.73859 25.076 4.61723C25.1262 4.49587 25.1998 4.3856 25.2927 4.29272C25.3856 4.19985 25.4959 4.12619 25.6172 4.07597C25.7386 4.02574 25.8686 3.99992 26 4H28V1C27.9999 0.868657 28.0257 0.738587 28.076 0.617227C28.1262 0.495867 28.1998 0.385597 28.2927 0.292723C28.3856 0.19985 28.4959 0.126193 28.6172 0.0759653C28.7386 0.0257376 28.8686 -7.60771e-05 29 1.68411e-07H33.9999C34.1313 -7.60771e-05 34.2613 0.0257376 34.3827 0.0759653C34.5041 0.126193 34.6143 0.19985 34.7072 0.292723C34.8001 0.385597 34.8737 0.495867 34.924 0.617227C34.9742 0.738587 35 0.868657 34.9999 1L34.9999 6ZM41.618 12H4.38206L6.10567 8.55273C6.18877 8.38665 6.31647 8.24698 6.47445 8.14936C6.63244 8.05174 6.81448 8.00002 7.00019 8H38.9998C39.1855 8.00002 39.3675 8.05174 39.5255 8.14936C39.6835 8.24698 39.8112 8.38665 39.8943 8.55273L41.618 12ZM0.149688 21.5254C0.0598849 21.3805 0.00869146 21.2151 0.000988951 21.0448C-0.00671355 20.8745 0.0293318 20.7051 0.105688 20.5527L1.38209 18H21.0541L18.8477 21.5303C18.7578 21.674 18.6329 21.7925 18.4846 21.8747C18.3363 21.9568 18.1696 22 18 22H1.00026C0.829789 21.9999 0.662169 21.9563 0.513306 21.8732C0.364444 21.7901 0.239278 21.6704 0.149688 21.5254V21.5254ZM24.9458 18H44.6179L45.8942 20.5527C45.9704 20.7052 46.0063 20.8746 45.9986 21.0449C45.9909 21.2151 45.9398 21.3806 45.8502 21.5256C45.7606 21.6705 45.6354 21.7902 45.4866 21.8733C45.3377 21.9563 45.1701 21.9999 44.9997 22H27.9999C27.8304 22 27.6637 21.9568 27.5154 21.8747C27.3671 21.7925 27.2422 21.674 27.1523 21.5303L24.9458 18ZM19 30H27V31.9594L25.5488 33.0236L19 31.6203V30ZM26.009 35.1673L27 35.3797V39.3346L21.8356 38.2279L26.009 35.1673ZM23.3906 34.6063L19.2171 37.6669L19 37.6203V33.6654L23.3906 34.6063ZM2.38208 16L3.38208 14H42.6179L43.6179 16H2.38208Z" stroke="black" stroke-width="2" mask="url(#path-1-inside-1_0_1)"/>
</svg>
  