<svg width="1268" height="194" viewBox="0 0 1268 194" fill="none" xmlns="http://www.w3.org/2000/svg">
<path fill-rule="evenodd" clip-rule="evenodd" d="M1098.6 18.8394C1096.15 20.4199 1090.36 23.6094 1085.73 25.9279C1081.09 28.2432 1077.08 30.3749 1076.81 30.6599C1076.01 31.5024 1070.91 34.2675 1062.37 38.4896C1057.98 40.6687 1050.85 44.5424 1046.52 47.1016C1035.99 53.3445 1033.18 54.9186 1023.32 60.1004C1012.72 65.6654 1003.59 71.0658 1001.03 73.2861C999.939 74.2268 997.979 75.3195 996.677 75.7154C988.549 78.186 985.192 81.5149 984.881 87.4125L984.583 93.0408L990.327 93.1548C993.488 93.2182 996.518 93.3734 997.063 93.5001C997.609 93.6268 999.745 93.7978 1001.81 93.8802L1005.56 94.029L1005.27 133.048C1005.12 154.503 1004.69 172.361 1004.32 172.728C1003.95 173.096 941.956 173.384 866.545 173.371L729.439 173.349L725.908 171.056C721.752 168.354 720.398 165.367 713.25 143.164L711.386 137.365L714.299 136.266C717.764 134.961 717.799 134.619 715.177 127.096C714.058 123.881 712.559 119.244 711.846 116.796C711.136 114.348 709.826 110.632 708.942 108.542C707.924 106.138 707.642 104.136 708.175 103.097C708.641 102.194 708.822 100.896 708.574 100.218C708.33 99.5371 708.565 98.9796 709.091 98.9796C709.617 98.9796 710.365 96.4489 710.752 93.3512C711.142 90.2567 711.814 86.7917 712.248 85.6482C712.759 84.3085 712.546 82.8958 711.659 81.6827C710.898 80.6438 710.277 78.9905 710.28 78.0054C710.28 76.8747 709.547 76.2159 708.298 76.2159C706.019 76.2159 705.816 77.6444 707.595 81.1538C708.825 83.5831 707.436 92.3598 704.412 101.27C703.705 103.354 703.943 105.466 705.357 109.682C712.419 130.732 713.107 134.612 709.782 134.612C706.39 134.612 706.485 135.233 712.822 153.977C717.808 168.74 718.731 170.669 722.478 174.21L726.624 178.125L794.481 178.322C880.002 178.572 865.353 178.572 942.58 178.306L1008.95 178.075V134.619C1008.95 85.0559 1009.86 89.1387 998.734 88.7364C988.178 88.3532 986.691 86.174 993.843 81.5592C1005.42 74.0874 1023.7 63.5465 1033.22 58.843C1037.31 56.8254 1042.57 53.8956 1044.91 52.3309C1047.25 50.7694 1049.41 49.4898 1049.69 49.4898C1049.98 49.4898 1053.19 47.7636 1056.82 45.6541C1060.46 43.5447 1066.78 40.0511 1070.87 37.891C1074.95 35.734 1081.64 32.0916 1085.73 29.7984C1100.45 21.5411 1107.71 18.6905 1108.94 20.6765C1109.24 21.1611 1110.52 21.8167 1111.8 22.1366C1113.07 22.4565 1119.2 25.646 1125.43 29.2283C1131.65 32.8106 1137.41 36.1236 1138.23 36.586C1139.04 37.0516 1142.84 39.2054 1146.65 41.3782C1150.46 43.5479 1155.59 46.4175 1158.04 47.7573C1161.78 49.8002 1174.52 57.2086 1179.84 60.4298C1180.65 60.9271 1183.59 62.4506 1186.36 63.8221C1189.14 65.1903 1194.17 68.0948 1197.54 70.2739C1200.92 72.4531 1204.08 74.2363 1204.58 74.2363C1205.09 74.2363 1205.85 74.7937 1206.28 75.4779C1206.72 76.162 1209.66 78.0466 1212.82 79.6683C1221.77 84.2673 1220.88 87.4821 1210.54 87.8939C1200.49 88.293 1201.23 85.0591 1201.02 128.933C1200.92 150.294 1200.57 169.836 1200.23 172.364C1199.8 175.633 1199.99 177.058 1200.88 177.311C1204.89 178.461 1268 177.033 1268 175.794C1268 174.074 1260.59 173.599 1229.28 173.301C1216 173.178 1205.01 172.962 1204.87 172.826C1204.42 172.377 1204.31 157.3 1204.5 124.961L1204.7 93.0408L1208.37 92.9236C1210.38 92.8603 1212.45 92.8888 1212.97 92.9901C1213.49 93.0915 1216.05 92.8793 1218.67 92.5182L1223.42 91.8657V86.2532V80.6407L1219.41 78.9018C1217.2 77.9452 1213.14 75.6141 1210.38 73.72C1207.62 71.8259 1204.91 70.2771 1204.35 70.2771C1203.79 70.2739 1202.84 69.6595 1202.23 68.9088C1201.63 68.1582 1197.34 65.6274 1192.71 63.2868C1185.63 59.7045 1177.57 55.1752 1159.22 44.4696C1157.75 43.6144 1153.66 41.3371 1150.12 39.4145C1146.57 37.4887 1138.77 33.0133 1132.78 29.469C1126.79 25.9216 1120.82 22.6909 1119.51 22.2855C1118.2 21.8832 1115.88 20.2647 1114.34 18.6937C1110.52 14.7852 1104.81 14.8359 1098.6 18.8394ZM60.9242 30.0835C54.1024 31.3472 54.6952 29.2061 55.9695 48.0487L56.7081 58.9792L48.8529 64.1324C44.5322 66.9672 40.5031 69.2857 39.8976 69.2857C39.2922 69.2857 38.6518 69.6278 38.468 70.0459C38.0178 71.0848 28.2954 77.2041 27.094 77.2041C26.5646 77.2041 25.2395 78.0308 24.1522 79.0443C23.0681 80.0547 20.5321 81.4262 18.5191 82.0913C16.5062 82.7533 14.861 83.656 14.861 84.0931C14.861 84.5333 13.967 85.1256 12.8797 85.4107C11.1394 85.8636 10.8985 86.7536 10.9111 92.7019C10.9333 103.921 11.0379 104.07 18.348 103.322C21.7684 102.974 26.9957 102.989 29.9628 103.36L35.3582 104.035L36.661 112.64C37.3775 117.376 38.1034 123.032 38.2746 125.208C38.4458 127.388 38.8071 130.726 39.0766 132.633C39.346 134.539 40.0593 139.883 40.6584 144.51C41.2544 149.138 42.161 155.634 42.665 158.944C43.1722 162.254 43.5875 166.596 43.5875 168.595V172.225L37.3965 172.329C33.9919 172.386 30.5366 172.535 29.7188 172.655C28.9009 172.776 21.8793 172.953 14.116 173.045C2.30459 173.187 0 173.457 0 174.698C0 175.962 2.56136 176.184 17.0895 176.19C26.4853 176.193 37.1746 176.481 40.8391 176.827L47.5025 177.454L47.0587 171.129C46.5324 163.612 43.6794 140.519 43.1691 139.664C42.5319 138.59 39.5838 112.511 39.3524 105.91L39.1305 99.4737H26.2508H13.3742L13.1111 94.6467C12.7941 88.8694 13.5549 87.8147 20.7445 84.0741C28.9611 79.795 36.5057 75.4304 42.1864 71.6612C44.976 69.8083 47.6166 68.2975 48.054 68.2975C48.4915 68.2975 50.3111 67.1826 52.0958 65.8206C53.8805 64.4619 55.5574 63.3469 55.8174 63.3469C56.0773 63.3469 60.677 60.433 66.0374 56.8729C71.3979 53.3128 78.0105 49.2744 80.7367 47.903C83.4598 46.5283 88.5191 43.6524 91.9807 41.5081C95.4392 39.367 98.8945 37.6123 99.6585 37.6123C100.419 37.6123 101.044 37.2385 101.044 36.7824C101.044 35.772 105.501 33.6531 107.628 33.6531C109.365 33.6531 112.503 34.9802 125.456 41.1882C130.436 43.5764 135.01 45.5306 135.622 45.5306C136.234 45.5306 137.508 45.9487 138.453 46.4587C140.016 47.3043 146.387 50.1898 155.53 54.1965C157.435 55.0327 165.775 58.9918 174.065 62.9954C182.354 66.9989 189.487 70.2803 189.915 70.2834C190.343 70.2898 194.394 72.0698 198.911 74.2426C203.428 76.4154 207.664 78.1955 208.323 78.1986C212.625 78.2176 218.369 88.255 215.636 90.9852C215.021 91.5997 210.51 92.0526 204.982 92.0494C193.205 92.0494 192.654 92.4834 194.033 100.636C194.568 103.807 195.522 111.079 196.15 116.796C196.778 122.513 197.89 130.751 198.626 135.106C199.358 139.461 200.483 148.146 201.127 154.408C201.767 160.67 202.541 166.46 202.845 167.277C203.149 168.091 203.495 169.973 203.615 171.452C204.116 177.631 195.522 177.147 304.333 177.15C358.974 177.15 404.682 176.881 405.909 176.551C408.407 175.88 409.035 172.225 406.651 172.225C404.625 172.225 404.784 169.611 407.006 166.438C410.28 161.76 413.989 154.544 413.282 154.221C412.905 154.047 411.533 152.704 410.233 151.231L407.871 148.555L409.605 141.337C410.556 137.365 411.739 133.082 412.227 131.815C414.04 127.125 410.613 126.314 405.018 130.111C401.056 132.804 399.984 135.781 399.921 144.295C399.892 147.89 399.559 149.204 398.859 148.501C396.45 146.097 394.985 147.389 395.53 151.44C395.822 153.616 395.657 155.4 395.166 155.4C394.671 155.4 394.262 154.396 394.253 153.17C394.224 148.989 392.769 147.855 389.178 149.207C384.708 150.892 384.267 149.762 388.128 146.525C390.826 144.266 391.286 143.326 390.747 141.178C390.17 138.882 390.386 138.571 392.579 138.571C394.56 138.571 396.437 136.75 401.734 129.69C408.518 120.644 410.059 119.485 414.842 119.799C416.332 119.897 418.107 119.928 418.786 119.871C420.453 119.729 420.301 116.748 418.507 114.379C416.5 111.725 416.728 109.812 419.416 106.762C425.173 100.234 429.332 103.42 428.771 113.933C428.226 124.185 431.932 124.052 443.825 113.391C446.292 111.18 450.501 107.592 453.18 105.412C455.856 103.237 460.972 98.7611 464.545 95.467C468.117 92.173 472.121 88.6097 473.44 87.5487C474.758 86.4876 476.765 84.7107 477.897 83.6053C481.406 80.1782 485.21 78.1923 488.272 78.1923C489.889 78.1923 491.908 77.4955 492.764 76.6371C494.691 74.7114 494.878 68.2975 493.008 68.2943C485.685 68.2943 486.668 57.4082 494.466 52.1314C503.266 46.1799 509.885 49.0432 505.748 57.0091C504.949 58.5484 504.544 60.7941 504.848 62.0008C505.742 65.5578 504.379 68.2975 501.719 68.2975C495.17 68.2975 496.777 76.7068 503.52 77.7172C509.169 78.5661 509.429 78.7941 511.334 84.6284C520.105 111.456 522.254 115.443 525.754 111.38C526.99 109.942 528.005 108.124 528.005 107.335C528.005 106.546 528.896 104.237 529.986 102.207C531.073 100.177 531.964 97.5036 531.964 96.2684C531.964 95.0331 532.858 92.3598 533.945 90.3296C535.036 88.2993 535.927 86.0663 535.93 85.3727C535.93 84.6759 536.354 83.3329 536.874 82.3859C537.394 81.442 538.707 78.5534 539.791 75.9657C541.531 71.8133 542.114 71.2653 544.787 71.2653C550.55 71.2653 552.132 68.288 551.364 58.8747L550.702 50.6934L554.338 47.7003C560.091 42.9619 565.648 43.7981 565.648 49.4043C565.648 50.4052 565.921 52.5938 566.257 54.2662C566.806 57.0059 566.58 57.3828 564.029 57.991C555.482 60.0371 556.69 70.2739 565.474 70.2771C567.997 70.2771 568.635 70.8599 570.077 74.4833C570.999 76.7955 572.347 80.0262 573.069 81.6574C573.795 83.2917 575.564 87.745 577.007 91.5553C578.446 95.3657 580.655 100.934 581.917 103.93C583.179 106.923 584.475 110.151 584.802 111.104C585.81 114.04 591.405 112.282 591.405 109.03C591.402 108.219 599.85 86.8107 606.009 72.0065C606.858 69.9667 608.054 68.2943 608.662 68.2975C609.271 68.2975 612.213 67.0369 615.199 65.5007C621.925 62.0357 622.512 59.6 618.483 51.9065L615.693 46.5854L619.976 42.5945C626.002 36.9788 631.065 37.1688 633.017 43.0791C634.758 48.3496 632.827 54.0286 629.042 54.7856C622.924 56.0082 626.576 63.3374 633.312 63.3628C640.01 63.385 643.044 68.8898 651.308 96.0118C655.936 111.193 657.731 114.294 660.368 111.658C662.137 109.894 666.68 99.3343 666.686 96.9715C666.689 96.1417 667.298 94.5833 668.043 93.5096C668.788 92.4359 669.729 90.4436 670.135 89.0816C670.541 87.7197 671.441 85.2713 672.132 83.637C672.826 82.0058 673.974 79.1108 674.684 77.2041C677.204 70.4513 678.437 69.2857 683.078 69.2857C689.919 69.2857 694.61 61.1456 689.383 58.3489C687.919 57.5665 687.468 56.6163 687.858 55.134C688.175 53.9178 687.754 52.3056 686.863 51.3205C685.221 49.5056 685.281 49.3631 689.722 44.4696C692.046 41.9135 699.191 41.79 700.015 44.2922C700.326 45.2456 701.204 47.4279 701.965 49.1446C703.585 52.806 703.746 56.0525 702.355 56.9141C697.644 59.8217 703.176 67.3473 714.781 73.8245C729.541 82.0628 733.522 83.0668 738.715 79.8583C739.228 79.5416 743.615 78.7909 748.466 78.1891C756.803 77.1534 759.789 75.7978 757.899 73.91C756.923 72.9345 743.78 74.7209 736.29 76.8525C731.278 78.2778 725.803 76.881 722.167 73.2449C721.895 72.9725 718.997 71.4174 715.726 69.7893C706.099 64.9971 704.536 62.742 706.441 56.3915C707.347 53.3698 707.268 52.0934 706.026 49.6038C705.186 47.9188 704.212 45.2424 703.864 43.6587C702.919 39.367 695.844 37.1086 690.378 39.3575C684.999 41.5683 679.658 50.6807 682.653 52.5273C683.408 52.9929 684.077 55.0105 684.134 57.0059C684.2 59.2579 684.859 60.9841 685.868 61.5479C688.784 63.1759 687.605 64.0248 680.868 65.1397C676.373 65.884 673.913 66.8089 673.213 68.0093C671.862 70.3373 667.827 81.6162 666.591 86.5256C666.055 88.6604 665.025 91.5553 664.302 92.9585C663.579 94.3648 662.061 97.5005 660.929 99.9266L658.872 104.336L657.727 101.412C656.263 97.6715 653.809 90.5798 648.864 75.8073C644.195 61.8678 643.355 60.7656 636.644 59.8185C633.829 59.4226 632.092 58.9 632.786 58.6561C634.891 57.9213 636.973 51.5486 636.973 45.8284C636.97 34.4861 627.771 31.0685 618.391 38.9299C611.173 44.9795 610.954 45.7713 614.695 52.3119C618.768 59.4353 617.465 61.1646 605.936 63.9202C604.392 64.2908 602.899 65.3139 602.62 66.1976C602.338 67.0781 601.533 69.1369 600.826 70.7712C600.122 72.4024 598.772 76.1905 597.827 79.1837C596.882 82.1768 594.984 87.3016 593.614 90.5671C587.211 105.802 587.176 105.846 585.315 101.206C584.713 99.7081 583.841 97.5955 583.372 96.5059C580.351 89.4554 574.563 74.6765 574.563 74.0082C574.563 71.0056 569.373 65.3265 566.625 65.3265C563.027 65.3265 562.577 62.8433 566.019 61.9818C572.429 60.3728 572.229 43.9089 565.772 41.4131C560.865 39.519 554.943 40.9823 550.683 45.1379L546.796 48.9292L547.06 57.8706L547.32 66.8089L543.357 67.8192C537.08 69.4156 534.938 70.9993 534.938 74.0494C534.938 75.5412 534.326 77.6412 533.574 78.7149C532.826 79.7886 531.897 82.5601 531.508 84.8691C531.121 87.1812 530.395 89.3224 529.897 89.6296C529.4 89.9368 528.994 90.9124 528.994 91.7961C528.994 92.6829 528.17 95.2168 527.161 97.4308C526.153 99.6447 524.86 102.568 524.29 103.93C523.253 106.398 523.243 106.391 521.601 102.445C520.695 100.266 519.354 97.1489 518.615 95.5145C517.88 93.8833 516.507 89.8735 515.566 86.6079C512.973 77.6158 509.86 74.2331 504.182 74.2363C503.117 74.2363 502.248 73.7897 502.248 73.2449C502.248 72.7001 503.127 72.2567 504.201 72.2567C506.734 72.2535 509.311 67.3093 509.02 63.008C508.899 61.1995 509.577 58.0796 510.525 56.0811C512.614 51.6848 511.54 49.5151 505.745 46.4111C498.318 42.433 486.417 50.497 484.912 60.528C484.043 66.3116 484.785 68.6839 487.901 70.1029C491.461 71.7246 491.093 74.2363 487.296 74.2363C485.612 74.2363 483.184 75.0566 481.903 76.0638C479.228 78.1701 468.051 87.9984 462.75 92.911C460.772 94.7417 456.512 98.5298 453.281 101.323C450.051 104.117 445.065 108.488 442.205 111.035C433.276 118.978 430.797 119.149 432.287 111.712C434.436 100.969 420.437 94.7987 416.903 104.928C416.332 106.556 415.467 107.886 414.975 107.889C413.752 107.889 413.837 113.559 415.073 114.322C417.312 115.703 415.796 116.796 411.64 116.796C408.061 116.796 406.993 117.22 406.045 119.023C401.671 127.34 393.815 134.644 389.916 134.02L386.062 133.399L386.578 137.992C386.978 141.533 386.724 142.863 385.466 143.794C379.183 148.454 380.054 154.408 387.016 154.408C389.634 154.408 390.55 154.924 391.264 156.8C393.032 161.44 398.916 161.136 399.873 156.35C400.342 154.009 401.88 152.755 405.167 152.042C405.437 151.982 406.686 152.66 407.941 153.547L410.22 155.159L408.023 158.991C406.816 161.098 404.619 165.047 403.138 167.771L400.45 172.719L308.945 172.43C258.618 172.272 215.123 172.161 212.285 172.183C206.386 172.231 207.074 173.704 205.147 156.882C202.712 135.619 200.94 121.965 200.138 118.281C199.666 116.102 198.965 109.98 198.581 104.671L197.89 95.0204H207.432C220.527 95.0204 220.873 94.7354 218.993 85.512C218.172 81.4863 217.044 78.1891 216.482 78.186C215.921 78.1796 213.233 77.0806 210.507 75.7408C207.784 74.401 204.956 73.2924 204.221 73.2766C203.489 73.2576 201.704 72.4341 200.258 71.4395C198.813 70.4481 195.177 68.6111 192.181 67.36C189.186 66.1057 181.34 62.5108 174.749 59.3688C168.159 56.2236 159.467 52.2201 155.431 50.4653C146.346 46.5157 139.794 43.6967 137.201 42.6198C133.803 41.2104 121.614 35.5155 115.626 32.5413C108.424 28.9591 105.612 28.9844 100.153 32.6807C97.7533 34.3055 95.2268 35.6327 94.5389 35.6327C93.8479 35.6327 93.1346 35.9652 92.9539 36.3738C92.0695 38.3598 80.9967 44.5424 78.3244 44.5424C77.8837 44.5424 77.218 41.0203 76.8408 36.7159L76.1593 28.8925L71.512 28.9369C68.957 28.9591 64.1925 29.4753 60.9242 30.0835ZM72.3172 33.159C72.3172 34.0807 71.3789 34.6445 69.8383 34.6445C67.4354 34.6445 66.6746 33.6784 68.0219 32.3323C69.2677 31.0875 72.3172 31.6735 72.3172 33.159ZM64.3922 33.6784C64.3922 34.2359 63.0259 34.9644 61.3554 35.3001C59.2156 35.7277 58.6323 36.2155 59.3741 36.9566C60.8862 38.4674 60.6738 40.5832 59.0096 40.5832C57.3833 40.5832 56.0107 37.1657 56.9998 35.5725C58.3439 33.3965 64.3922 31.8445 64.3922 33.6784ZM70.336 37.9765C70.336 39.5665 63.3937 40.9728 62.0749 39.652C60.4551 38.0367 62.4902 36.624 66.4305 36.624C69.0743 36.624 70.336 37.0611 70.336 37.9765ZM65.3813 43.4402C65.3813 46.8451 57.5482 46.7691 57.4721 43.3642C57.4626 42.9872 59.1268 42.5058 61.1715 42.2936C63.213 42.0782 64.9977 41.828 65.134 41.7393C65.2703 41.6475 65.3813 42.4108 65.3813 43.4402ZM73.3063 43.0569C73.3063 43.9786 72.3711 44.5424 70.8305 44.5424C68.2406 44.5424 67.4608 43.0854 69.591 42.2271C71.9495 41.2769 73.3063 41.5778 73.3063 43.0569ZM1113.55 101.605C1113.48 134.08 1113.15 161.741 1112.81 163.077C1112.1 165.906 1113.64 167.239 1117.64 167.261L1120.33 167.277L1120.37 136.424C1120.41 101.723 1120.04 104.028 1125.06 106.581C1134.09 111.171 1139.75 114.268 1140.21 114.864C1140.48 115.219 1145.16 117.87 1150.61 120.755C1156.06 123.644 1160.67 126.383 1160.85 126.843C1161.03 127.305 1162 127.685 1163.02 127.685C1164.03 127.685 1165.14 128.135 1165.48 128.686C1165.82 129.24 1167.91 130.688 1170.13 131.904C1179.05 136.804 1178.19 134.707 1178.27 151.615L1178.35 166.78L1182.31 167.071L1186.27 167.363L1186.46 125.5L1186.66 83.637L1181.09 81.1633C1178.04 79.8013 1173.05 77.0869 1170.01 75.1263C1159.19 68.1581 1153.52 64.7057 1149.13 62.4094C1146.67 61.1298 1143.96 59.4828 1143.1 58.7448C1142.24 58.01 1141.01 57.4082 1140.36 57.4082C1139.03 57.4082 1130.98 52.3721 1130.47 51.2223C1130.29 50.8138 1129.58 50.4812 1128.9 50.4812C1128.22 50.4812 1125.12 48.698 1122 46.522C1118.89 44.3429 1115.74 42.5628 1115.01 42.5628C1113.9 42.5628 1113.65 52.7617 1113.55 101.605ZM1092.39 45.5306C1091 46.6202 1089.53 47.5102 1089.12 47.5102C1088.7 47.5102 1085.21 49.436 1081.35 51.7925C1077.49 54.149 1070.1 58.2095 1064.92 60.8162C1059.75 63.423 1054.81 66.1722 1053.95 66.926C1053.09 67.6799 1051.93 68.2975 1051.37 68.2975C1050.82 68.2975 1047.64 70.0586 1044.3 72.2155C1040.96 74.3725 1036.1 77.0521 1033.5 78.1701L1028.76 80.2036L1028.74 122.633L1028.73 165.063L1034.19 165.427C1037.2 165.627 1052.37 165.792 1067.89 165.792H1096.13L1095.79 162.327C1095.6 160.42 1095.29 158.703 1095.1 158.507C1094.91 158.31 1081.91 157.927 1066.22 157.648C1050.52 157.373 1037.33 156.822 1036.89 156.423C1036.05 155.659 1035.61 129.133 1035.98 102.242L1036.19 86.2057L1040.4 84.1818C1046.02 81.4863 1054.31 76.9127 1057.71 74.6354C1062.38 71.5124 1069.79 67.5532 1084.49 60.3285L1098.6 53.392V48.4731C1098.6 42.832 1096.87 42.0117 1092.39 45.5306ZM70.8305 48.5839C70.8305 49.4898 69.5149 50.0948 67.1152 50.2911C62.6043 50.6649 61.7072 47.8935 66.123 47.2378C69.8795 46.6804 70.8305 46.9528 70.8305 48.5839ZM60.4297 50.4812C60.4297 52.4608 60.9242 53.449 61.9133 53.449C63.904 53.449 63.8089 55.0612 61.7738 55.8403C59.6214 56.667 59.3678 56.3059 58.7274 51.5517C58.3692 48.8848 58.5658 47.5102 59.3075 47.5102C59.9225 47.5102 60.4297 48.8468 60.4297 50.4812ZM1133.44 62.042C1136.53 63.8474 1139.35 65.3265 1139.71 65.3265C1140.07 65.3265 1144.23 67.9523 1148.96 71.1608C1153.68 74.3693 1159.77 78.1321 1162.5 79.5194C1165.22 80.9099 1169.46 83.4058 1171.91 85.0654C1174.36 86.7251 1176.93 88.0839 1177.6 88.0871C1179.06 88.0934 1179.44 123.238 1178 124.132C1176.92 124.797 1161.99 117.173 1144.17 106.847C1143.36 106.375 1139.12 103.87 1134.76 101.279C1130.4 98.6914 1125.5 95.8344 1123.86 94.9349L1120.89 93.2974L1120.75 75.5982C1120.66 65.8682 1120.79 57.595 1121.02 57.2213C1121.63 56.2077 1127.08 58.3204 1133.44 62.042ZM608.602 77.6982C608.288 78.5154 608.358 79.9629 608.757 80.9162C609.157 81.8696 610.298 86.6555 611.29 91.5553C612.286 96.4552 613.547 102.549 614.096 105.096C614.644 107.642 614.86 110.759 614.574 112.023C614.289 113.287 613.645 117.886 613.138 122.241C612.634 126.596 611.965 131.049 611.655 132.139C607.92 145.201 607.011 170.973 610.225 172.611C619.174 177.159 618.962 177.096 620.233 175.569C621.757 173.732 620.41 172.24 615.921 170.79C611.468 169.352 611.461 168.325 615.712 134.904C619.149 107.886 619.256 106.144 617.827 101.453C616.996 98.7325 615.801 93.8327 615.173 90.5671C612.52 76.8177 610.475 72.8173 608.602 77.6982ZM539.236 80.723C538.897 81.6067 539.499 83.0574 540.65 84.1279C543.931 87.1844 544.644 109.023 541.896 122.241C540.761 127.685 539.185 136.202 538.396 141.169C537.603 146.135 536.285 153.037 535.464 156.508C533.444 165.079 533.508 169.149 535.679 169.982C536.633 170.346 538.925 171.667 540.77 172.918C544.913 175.724 547.817 175.886 547.817 173.308C547.817 172.12 546.166 170.457 543.357 168.813C538.298 165.849 537.879 164.062 540.307 155.761C541.081 153.11 542.209 147.605 542.812 143.522C543.82 136.69 544.806 131.473 547.849 116.837C548.467 113.866 548.711 110.138 548.394 108.558C548.08 106.977 547.545 100.722 547.205 94.6593C546.514 82.2687 541.807 74.0336 539.236 80.723ZM680.561 81.7049C680.561 82.5474 682.035 85.5564 683.842 88.388C687.11 93.5159 687.117 93.5603 685.906 99.4737C684.108 108.247 682.618 114.072 681.604 116.302C680.479 118.772 677.502 131.306 677.267 134.562C677.122 136.582 677.689 137.127 680.691 137.849C685.192 138.929 685.668 141.172 685.452 160.309C685.3 173.495 685.335 173.71 687.475 173.71C689.64 173.71 689.649 173.612 689.523 156.115C689.386 137.523 689.136 135.604 686.828 135.604C683.37 135.604 681.683 133.741 682.571 130.91C683.557 127.764 687.069 113.008 688.049 107.889C688.416 105.983 689.047 103.978 689.453 103.433C691.627 100.522 691.358 93.3544 688.939 89.7975C687.598 87.8274 686.505 85.7496 686.505 85.1763C686.505 84.603 686.086 84.1342 685.579 84.1342C685.072 84.1342 684.371 83.2411 684.026 82.1547C683.287 79.8267 680.561 79.4751 680.561 81.7049ZM478.473 86.8835C478.473 87.3776 479.291 88.5274 480.296 89.4332C483.317 92.1666 485.111 106.423 483.13 111.95C482.271 114.344 481.288 118.025 480.943 120.134C480.601 122.244 479.928 124.692 479.453 125.579C478.343 127.65 474.511 140.931 474.511 142.708C474.511 143.452 476.106 144.919 478.058 145.97C481.235 147.678 481.545 148.2 481.013 150.896C479.526 158.399 478.68 171.778 479.621 172.909C481.349 174.99 489.343 177.593 490.488 176.45C491.74 175.199 487.911 172.225 485.048 172.225C483.054 172.225 483.057 169.596 485.083 151.732C485.663 146.629 485.631 146.556 482.071 144.456C478.255 142.208 477.757 140.51 479.573 135.914C480.62 133.266 481.567 129.909 485.124 116.302C488.117 104.861 485.752 86.817 481.196 86.2944C479.697 86.1202 478.473 86.3862 478.473 86.8835ZM507.831 94.5263C507.52 95.3435 506.69 96.0118 505.992 96.0181C501.38 96.0403 499.221 105.625 501.751 114.848C508.154 138.179 508.791 143.522 505.171 143.522C502.242 143.522 502.166 144.703 504.385 155.761L506.49 166.26L511.638 170.144C517.512 174.575 520.749 174.41 517.747 169.833C516.824 168.427 515.464 167.277 514.719 167.277C509.86 167.277 505.488 146.993 509.923 145.03C512.63 143.829 512.656 143.12 510.281 134.767C503.361 110.404 502.274 101.643 505.992 100.221C508.088 99.4199 511.086 95.9516 511.131 94.2793C511.175 92.5341 508.522 92.7336 507.831 94.5263ZM150.382 98.514C150.166 98.7262 144.663 99.404 138.149 100.018C124.882 101.273 123.472 102.036 124.882 107.202C125.811 110.604 126.369 114.604 127.329 124.714C127.665 128.252 128.344 134.042 128.835 137.583C129.33 141.121 129.742 144.415 129.751 144.906C129.777 146.04 157.622 143.737 158.861 142.499C159.118 142.242 158.893 139.807 158.361 137.086C157.831 134.365 157.242 130.355 157.051 128.179C156.639 123.409 154.744 107.826 153.961 102.768C153.472 99.6099 151.561 97.3358 150.382 98.514ZM150.629 101.206C152.946 112.134 153.228 118.776 151.377 118.776C150.819 118.776 150.604 118.148 150.898 117.385C151.19 116.619 150.597 115.234 149.573 114.313C148.068 112.951 147.934 112.282 148.86 110.8C150.489 108.193 149.342 107.588 145.028 108.779C142.964 109.346 141.204 109.714 141.116 109.593C138.894 106.553 140.047 102.964 143.427 102.4C145.452 102.065 147.554 101.637 148.099 101.45C149.399 101.01 150.562 100.899 150.629 101.206ZM137.698 105.349C137.698 106.068 137.004 107.231 136.155 107.934C134.741 109.106 134.538 107.24 135.635 103.129C135.866 102.261 137.698 104.234 137.698 105.349ZM130.366 104.76C130.084 105.216 130.652 107.11 131.631 108.966C133.894 113.252 133.891 120.096 131.631 120.54C129.567 120.942 129.076 119.552 128.227 110.959C127.615 104.747 127.729 103.93 129.206 103.93C130.125 103.93 130.648 104.304 130.366 104.76ZM75.9437 114.322C76.8693 121.338 76.2258 131.844 74.6884 134.812C73.1256 137.833 73.5757 140.963 75.912 143.297C76.6601 144.041 77.2688 145.201 77.2688 145.872C77.2688 146.547 78.3846 148.606 79.7445 150.449C81.1076 152.292 82.2235 154.608 82.2235 155.59C82.2235 157.788 84.0462 157.949 84.8641 155.821C85.1969 154.95 84.4425 152.891 83.1428 151.136C75.2463 140.459 75.0624 131.657 82.7116 130.225C87.5586 129.316 93.4072 119.767 89.1182 119.767C88.6142 119.767 87.9326 120.847 87.5998 122.168C86.5537 126.333 81.1203 129.453 78.131 127.603C77.0627 126.944 77.0405 126.526 78.02 125.547C79.7065 123.862 79.5733 117.306 77.8235 115.855C77.0405 115.206 76.1783 113.701 75.9088 112.517C75.6425 111.332 75.6552 112.143 75.9437 114.322ZM139.68 112.425C139.68 114.173 137.546 113.869 136.934 112.032C136.719 111.386 137.248 110.857 138.111 110.857C138.973 110.857 139.68 111.563 139.68 112.425ZM146.365 114.525C148.058 118.171 147.969 118.475 145.05 119.032C141.994 119.615 141.195 118.145 142.587 114.493C143.855 111.152 144.799 111.161 146.365 114.525ZM94.111 119.27C94.111 120.087 94.5548 120.755 95.1 120.755C95.6452 120.755 96.0922 120.087 96.0922 119.27C96.0922 118.452 95.6452 117.787 95.1 117.787C94.5548 117.787 94.111 118.452 94.111 119.27ZM139.182 118.776C139.518 119.32 138.852 119.767 137.698 119.767C136.541 119.767 135.876 119.32 136.212 118.776C136.548 118.231 137.217 117.787 137.698 117.787C138.177 117.787 138.846 118.231 139.182 118.776ZM154.693 127.685C155.051 131.223 155.498 135.439 155.685 137.057C156.012 139.902 155.856 140.022 150.746 140.855C144.517 141.872 145.021 142.233 144.384 136.291L143.87 131.537L146.692 132.154C151.152 133.133 152.823 131.717 151.108 128.411C149.805 125.902 149.202 123.333 149.472 121.43C149.532 120.983 150.588 120.758 151.814 120.932C153.783 121.214 154.119 122 154.693 127.685ZM629.356 122.896C630.11 125.927 634.38 137.792 635.179 139.075C635.522 139.626 636.552 142.965 637.468 146.499C638.381 150.031 639.494 153.369 639.934 153.914C640.378 154.459 641.25 156.907 641.868 159.359C642.489 161.807 643.424 164.702 643.944 165.792C644.467 166.881 645.498 169.551 646.233 171.73L647.574 175.69H655.385C662.036 175.69 663.246 175.433 663.532 173.957C663.82 172.459 663.044 172.225 657.826 172.225C652.161 172.225 651.723 172.057 650.712 169.504C650.119 168.006 649.168 165.893 648.595 164.81C648.021 163.723 647.222 161.497 646.816 159.859C646.411 158.222 644.439 152.429 642.429 146.984C640.422 141.542 638.115 135.081 637.3 132.633C633.613 121.541 633.461 121.256 631.106 120.917C629.112 120.632 628.865 120.91 629.356 122.896ZM140.421 128.905C139.873 134.634 139.176 135.524 136.966 133.317C135.46 131.812 135.454 131.644 136.884 131.644C139.499 131.644 140.095 128.369 137.762 126.821C135.473 125.3 135.071 123.131 136.954 122.456C139.553 121.522 140.894 124.014 140.421 128.905ZM147.174 125.516C148.511 128.708 148.489 128.775 146.343 128.103C143.769 127.302 142.685 125.921 142.666 123.403C142.64 120.476 145.649 121.886 147.174 125.516ZM560.694 123.096C560.694 125.649 562.922 136.06 564.006 138.571C564.964 140.785 568.41 153.882 570.258 162.327C572.372 171.984 573.434 173.029 581.498 173.333C589.889 173.653 591.601 169.985 583.309 169.453C577.523 169.079 577.178 168.642 574.604 158.367C573.444 153.74 571.89 147.95 571.152 145.502C570.413 143.05 568.787 137.26 567.538 132.633C566.292 128.005 564.853 123.663 564.346 122.982C563.112 121.328 560.694 121.404 560.694 123.096ZM132.249 124.714C131.761 126.247 132.246 126.941 134.411 127.809L137.201 128.924L134.316 129.747C130.297 130.891 129.203 128.841 130.699 122.982C130.734 122.846 131.238 122.735 131.821 122.735C132.427 122.735 132.611 123.577 132.249 124.714ZM408.502 133.833C408.093 134.495 407.253 137.279 406.635 140.022C405.418 145.416 402.454 147.288 402.967 142.334C403.414 138.033 406.055 132.633 407.713 132.633C408.664 132.633 408.962 133.089 408.502 133.833ZM135.143 137.241C135.559 138.328 136.516 138.552 138.688 138.077C141.011 137.567 141.661 137.767 141.661 138.986C141.661 139.848 141.667 140.884 141.677 141.292C141.709 142.654 133.46 142.695 132.598 141.34C131.168 139.088 131.58 134.609 133.162 135.214C133.939 135.512 134.83 136.424 135.143 137.241ZM415.669 160.1C416.028 163.774 416.608 168.563 416.956 170.739L417.594 174.698L422.773 174.999C427.43 175.268 427.95 175.094 427.95 173.267C427.95 171.563 427.322 171.236 424.067 171.236H420.184L419.477 164.553C418.678 156.99 417.584 153.42 416.059 153.42C415.368 153.42 415.235 155.672 415.669 160.1ZM1100.34 167.356C1098.34 168.512 1098.01 173.216 1099.79 174.996C1101.51 176.716 1106.21 176.469 1106.92 174.619C1108.89 169.482 1104.68 164.832 1100.34 167.356ZM1190.31 167.841C1185.98 172.164 1192.02 178.524 1196.92 174.806C1199.32 172.991 1199.09 169.672 1196.45 167.825C1193.67 165.88 1192.27 165.883 1190.31 167.841Z" fill="black"/>
</svg>
